<?xml version="1.0" standalone="no"?>
<!DOCTYPE svg PUBLIC "-//W3C//DTD SVG 20010904//EN"
 "http://www.w3.org/TR/2001/REC-SVG-20010904/DTD/svg10.dtd">
<svg version="1.0" xmlns="http://www.w3.org/2000/svg"
 width="160.000000pt" height="160.000000pt" viewBox="0 0 160.000000 160.000000"
 preserveAspectRatio="xMidYMid meet">
<metadata>
Created by potrace 1.16, written by Peter Selinger 2001-2019
</metadata>
<g transform="translate(0.000000,160.000000) scale(0.100000,-0.100000)"
fill="#000000" stroke="none">
<path d="M0 800 l0 -800 800 0 800 0 0 800 0 800 -800 0 -800 0 0 -800z m901
554 c73 -22 129 -56 179 -110 42 -45 90 -134 90 -166 0 -16 -3 -15 -42 2 -49
22 -117 25 -168 6 -29 -10 -41 -10 -65 0 -38 17 -170 16 -215 0 -29 -11 -41
-10 -70 2 -42 17 -122 12 -169 -11 -19 -9 -36 -17 -38 -17 -8 0 11 57 33 102
82 163 283 246 465 192z m-193 -358 c19 -17 40 -44 48 -59 14 -25 13 -30 -8
-60 -12 -18 -45 -57 -73 -87 -27 -30 -64 -73 -81 -95 l-32 -39 -35 27 c-54 41
-78 85 -68 127 19 82 100 193 166 228 22 12 28 9 83 -42z m274 19 c60 -44 114
-124 129 -192 11 -50 11 -54 -14 -87 -15 -19 -41 -45 -58 -57 l-31 -22 -26 34
c-15 19 -52 61 -82 94 -31 33 -67 75 -79 92 l-22 33 23 41 c19 35 90 100 107
99 4 0 27 -16 53 -35z m-97 -255 c32 -26 95 -111 90 -121 -11 -16 -137 -49
-189 -49 -49 0 -103 12 -169 39 l-28 11 22 33 c13 17 51 64 85 102 33 39 67
80 73 93 12 22 13 21 55 -35 23 -32 51 -65 61 -73z"/>
</g>
</svg>
