<svg id="visual" viewBox="0 0 540 960" width="540" height="960" xmlns="http://www.w3.org/2000/svg" xmlns:xlink="http://www.w3.org/1999/xlink" version="1.1"><rect x="0" y="0" width="540" height="960" fill="#b2d8d8"></rect><path d="M0 199L18 191.2C36 183.3 72 167.7 108 168.8C144 170 180 188 216 178.7C252 169.3 288 132.7 324 119.5C360 106.3 396 116.7 432 120.2C468 123.7 504 120.3 522 118.7L540 117L540 0L522 0C504 0 468 0 432 0C396 0 360 0 324 0C288 0 252 0 216 0C180 0 144 0 108 0C72 0 36 0 18 0L0 0Z" fill="#66b2b2" stroke-linecap="round" stroke-linejoin="miter"></path></svg>